<?xml version="1.0" encoding="UTF-8" standalone="no"?>
<svg xmlns:svg="http://www.w3.org/2000/svg" xmlns="http://www.w3.org/2000/svg" version="1.0" width="64" height="64" id="svgS">
<path d="M 31.942932,9.6969695e-08 C 40.894453,9.6969695e-08 48.475178,3.1049644 54.685107,9.3148931 C 60.893871,15.486388 64,23.048479 64,32 C 64,40.952686 60.952104,48.456544 54.856311,54.513903 C 48.41811,60.837968 40.780317,64 31.942932,64 C 23.29422,64 15.790362,60.857767 9.429029,54.572136 C 3.1433979,48.286505 0,40.764012 0,32.001165 C 0,23.277915 3.1433979,15.715825 9.429029,9.3160581 C 15.637793,3.1049644 23.142816,9.6969695e-08 31.942932,9.6969695e-08 z M 32.057068,5.7720193 C 24.780317,5.7720193 18.628621,8.3435731 13.599651,13.486679 C 8.379677,18.782356 5.770855,24.953851 5.770855,32 C 5.770855,39.124181 8.361042,45.257243 13.541418,50.400349 C 18.721794,55.58189 24.893289,58.170913 32.055903,58.170913 C 39.17892,58.170913 45.388848,55.562091 50.684525,50.342117 C 55.713495,45.465716 58.227981,39.351288 58.227981,31.998835 C 58.227981,24.684816 55.675062,18.513321 50.570389,13.485515 C 45.504149,8.3424081 39.332654,5.7720193 32.057068,5.7720193 z M 45.086039,22.857476 C 45.581016,22.857476 46.000291,23.02868 46.342699,23.371087 C 46.685107,23.713495 46.857476,24.133935 46.857476,24.628913 L 46.857476,48.171204 C 46.857476,48.666181 46.686272,49.085456 46.342699,49.427864 C 46.000291,49.770272 45.581016,49.942641 45.086039,49.942641 L 27.65701,49.942641 C 27.160868,49.942641 26.742757,49.771437 26.399185,49.427864 C 26.055612,49.084292 25.885573,48.666181 25.885573,48.171204 L 25.885573,41.199592 L 18.913961,41.199592 C 18.417819,41.199592 17.999709,41.028388 17.656136,40.68598 C 17.313728,40.343573 17.142524,39.924298 17.142524,39.428155 L 17.142524,15.885864 C 17.142524,15.428155 17.293929,15.037997 17.600233,14.714223 C 17.904207,14.391614 18.285049,14.191294 18.742757,14.114427 L 18.913961,14.114427 L 36.341826,14.114427 C 36.836803,14.114427 37.256078,14.285631 37.599651,14.628039 C 37.942059,14.970447 38.113262,15.390887 38.113262,15.885864 L 38.113262,22.857476 L 45.086039,22.857476 z M 20.62833,37.713787 L 25.885573,37.713787 L 25.885573,24.628913 C 25.885573,24.171204 26.036978,23.781045 26.343281,23.457272 C 26.647256,23.134663 27.009463,22.934343 27.428738,22.857476 L 27.65701,22.857476 L 34.628621,22.857476 L 34.628621,17.657301 L 20.62833,17.657301 L 20.62833,37.713787 z M 43.37167,26.342117 L 29.371379,26.342117 L 29.371379,46.399767 L 43.37167,46.399767 L 43.37167,26.342117 z" id="pS"/>
</svg>